<svg width="97" height="93" viewBox="0 0 97 93" fill="none" xmlns="http://www.w3.org/2000/svg">
<g filter="url(#filter0_d_1354_2)">
<path d="M73 46.5C73 60.031 62.031 71 48.5 71C34.969 71 24 60.031 24 46.5C24 32.969 34.969 22 48.5 22C62.031 22 73 32.969 73 46.5ZM28.7328 46.5C28.7328 57.4171 37.5829 66.2672 48.5 66.2672C59.4171 66.2672 68.2672 57.4171 68.2672 46.5C68.2672 35.5829 59.4171 26.7328 48.5 26.7328C37.5829 26.7328 28.7328 35.5829 28.7328 46.5Z" fill="#ED0202"/>
</g>
<path d="M65 46.5C65 55.6127 57.6127 63 48.5 63C39.3873 63 32 55.6127 32 46.5C32 37.3873 39.3873 30 48.5 30C57.6127 30 65 37.3873 65 46.5ZM33.6963 46.5C33.6963 54.6758 40.3242 61.3037 48.5 61.3037C56.6758 61.3037 63.3037 54.6758 63.3037 46.5C63.3037 38.3242 56.6758 31.6963 48.5 31.6963C40.3242 31.6963 33.6963 38.3242 33.6963 46.5Z" fill="white" fill-opacity="0.25"/>
<path d="M76 46.5C76 61.6878 63.6878 74 48.5 74C33.3122 74 21 61.6878 21 46.5C21 31.3122 33.3122 19 48.5 19C63.6878 19 76 31.3122 76 46.5ZM25.0197 46.5C25.0197 59.4678 35.5322 69.9803 48.5 69.9803C61.4678 69.9803 71.9803 59.4678 71.9803 46.5C71.9803 33.5322 61.4678 23.0197 48.5 23.0197C35.5322 23.0197 25.0197 33.5322 25.0197 46.5Z" fill="white" fill-opacity="0.25"/>
<g clip-path="url(#clip0_1354_2)">
<path d="M55.1965 46.0902V45.0991H53.8831V46.0902C53.8823 46.859 53.7209 47.5892 53.4297 48.2504L54.4106 49.2315C54.9114 48.2954 55.196 47.2257 55.1965 46.0902Z" fill="#FF0000"/>
<path d="M51.4743 46.0902V39.9734C51.4738 38.3332 50.1412 37.0005 48.5007 37C46.8611 37.0005 45.5279 38.3332 45.5273 39.9734V40.3489L51.4674 46.2892C51.4717 46.2233 51.4743 46.1574 51.4743 46.0902Z" fill="#FF0000"/>
<path d="M53.6155 50.3995C53.623 50.3907 53.6315 50.3827 53.639 50.3739L52.7069 49.4416C52.6997 49.4506 52.6909 49.4586 52.6837 49.4677L50.9651 47.7489C50.9718 47.7392 50.9798 47.7307 50.9862 47.7208L45.5281 42.2635V42.3118L42.141 38.9248L41.1836 39.882L45.5281 44.2264V46.09C45.5286 47.7297 46.8618 49.0623 48.5014 49.0629C49.0366 49.0626 49.5378 48.9186 49.9719 48.6703L51.7047 50.403C50.8078 51.0713 49.7039 51.4709 48.5014 51.4709C47.017 51.4709 45.675 50.8686 44.6984 49.8926C43.7223 48.9159 43.1201 47.5745 43.1201 46.09V45.099H41.8066V46.09C41.8077 49.4853 44.3463 52.2885 47.6264 52.7205V55.9998H49.3775V52.7206C50.5995 52.5592 51.7153 52.0648 52.6389 51.3373L54.8618 53.5601L55.819 52.603L53.6155 50.3995Z" fill="#FF0000"/>
</g>
<defs>
<filter id="filter0_d_1354_2" x="6" y="4" width="85" height="85" filterUnits="userSpaceOnUse" color-interpolation-filters="sRGB">
<feFlood flood-opacity="0" result="BackgroundImageFix"/>
<feColorMatrix in="SourceAlpha" type="matrix" values="0 0 0 0 0 0 0 0 0 0 0 0 0 0 0 0 0 0 127 0" result="hardAlpha"/>
<feOffset/>
<feGaussianBlur stdDeviation="9"/>
<feComposite in2="hardAlpha" operator="out"/>
<feColorMatrix type="matrix" values="0 0 0 0 0.929412 0 0 0 0 0.00784314 0 0 0 0 0.00784314 0 0 0 1 0"/>
<feBlend mode="normal" in2="BackgroundImageFix" result="effect1_dropShadow_1354_2"/>
<feBlend mode="normal" in="SourceGraphic" in2="effect1_dropShadow_1354_2" result="shape"/>
</filter>
<clipPath id="clip0_1354_2">
<rect width="19" height="19" fill="white" transform="translate(39 37)"/>
</clipPath>
</defs>
</svg>
