<svg width="87" height="114" viewBox="0 0 87 114" fill="none" xmlns="http://www.w3.org/2000/svg">
<path d="M35.3575 67.2255L46.7704 73.8013L23.5944 113.861L16.9424 99.0563L35.3575 67.2255Z" fill="#3FC8FF" fill-opacity="0.75"/>
<path d="M35.3575 67.2255L23.9449 60.6503L0.768799 100.711L16.9424 99.0563L35.3575 67.2255Z" fill="#4A608C" fill-opacity="0.75"/>
<path d="M51.6415 67.2255L40.2286 73.8013L63.4046 113.861L70.0564 99.0563L51.6415 67.2255Z" fill="#4A608C" fill-opacity="0.75"/>
<path d="M51.6415 67.2255L63.0541 60.6503L86.23 100.711L70.0564 99.0563L51.6415 67.2255Z" fill="#3FC8FF" fill-opacity="0.75"/>
<path d="M43.4838 78.8551C65.1846 78.8551 82.7766 61.2992 82.7766 39.6428C82.7766 17.9865 65.1846 0.430542 43.4838 0.430542C21.783 0.430542 4.19103 17.9865 4.19103 39.6428C4.19103 61.2992 21.783 78.8551 43.4838 78.8551Z" fill="#3FC8FF"/>
<path d="M43.4823 70.2515C60.4216 70.2515 74.1537 56.5476 74.1537 39.6429C74.1537 22.7383 60.4216 9.03432 43.4823 9.03432C26.5429 9.03432 12.8109 22.7383 12.8109 39.6429C12.8109 56.5476 26.5429 70.2515 43.4823 70.2515Z" fill="#11536E"/>
<path d="M45.1225 73.5894C62.1013 73.5894 75.8653 59.8536 75.8653 42.9095C75.8653 25.9655 62.1013 12.2297 45.1225 12.2297C28.1437 12.2297 14.3797 25.9655 14.3797 42.9095C14.3797 59.8536 28.1437 73.5894 45.1225 73.5894Z" fill="#3FC8FF"/>
<path d="M43.4833 70.3217C60.4621 70.3217 74.2261 56.5859 74.2261 39.6419C74.2261 22.6979 60.4621 8.96201 43.4833 8.96201C26.5045 8.96201 12.7404 22.6979 12.7404 39.6419C12.7404 56.5859 26.5045 70.3217 43.4833 70.3217Z" fill="#2180A6"/>
<path d="M43.6508 18.3003L50.2823 31.5364L63.5458 33.1909L54.4381 43.3829L56.9142 58.0088L43.6508 51.3908L30.3874 58.0088L32.8854 43.3829L23.7558 33.1909L37.0192 31.5364L43.6508 18.3003Z" fill="url(#paint0_linear_7_36)"/>
<defs>
<linearGradient id="paint0_linear_7_36" x1="43.6508" y1="18.3003" x2="43.6508" y2="58.0088" gradientUnits="userSpaceOnUse">
<stop stop-color="#86DCFF"/>
<stop offset="0.401042" stop-color="#6AD4FF"/>
<stop offset="1" stop-color="#3FC8FF"/>
</linearGradient>
</defs>
</svg>