<svg width="66" height="66" viewBox="0 0 66 66" fill="none" xmlns="http://www.w3.org/2000/svg">
<path fill-rule="evenodd" clip-rule="evenodd" d="M30.4226 0.0259291C22.4283 0.761184 15.1503 4.1097 9.702 9.55921C4.53632 14.7261 1.31137 21.2375 0.179942 28.7846C-0.109114 30.7124 -0.0380773 35.7472 0.308196 37.8817C1.85732 47.431 6.98399 55.4094 14.9236 60.6268C18.0136 62.6573 22.5043 64.5291 26.0958 65.2835C31.7445 66.4701 37.6144 66.1785 43.0541 64.4411C45.881 63.5382 49.3864 61.8818 50.9258 60.7214C53.208 59.001 52.2272 55.3539 49.3775 54.9637C48.5971 54.8569 47.829 55.0991 46.5986 55.8396C41.0508 59.1794 34.1429 60.3429 27.6457 59.0321C21.9359 57.8803 16.395 54.5771 12.6217 50.0758C9.52363 46.3796 7.57644 42.0904 6.70269 37.0375C6.39013 35.2295 6.38806 30.7083 6.69907 28.9137C8.35708 19.3467 14.5049 11.7278 23.3572 8.26974C30.3125 5.55273 37.9043 5.86926 44.6946 9.15958C52.4062 12.8962 57.6427 19.8674 59.2479 28.5336C59.4952 29.8697 59.5354 30.556 59.5492 33.688C59.5594 36.0232 59.616 37.4215 59.7092 37.6416C59.9346 38.174 60.6344 38.9022 61.2145 39.2081C61.9522 39.5972 63.3414 39.5979 64.0771 39.2099C64.8629 38.7955 65.5088 38.0069 65.7685 37.1451C65.9553 36.5252 65.9947 35.8588 65.9997 33.2364C66.0062 29.821 65.8992 28.7139 65.2927 25.9161C62.6177 13.5767 53.0147 3.7915 40.6907 0.84751C38.1406 0.238325 36.6444 0.0596079 33.7161 0.0144448C32.2243 -0.00865287 30.7423 -0.00349138 30.4226 0.0259291ZM44.7591 21.0687C44.26 21.2401 43.0432 22.3991 36.138 29.2812L28.098 37.2941L25.0304 34.2403C21.7381 30.963 21.3319 30.6637 20.1695 30.6585C19.2482 30.6544 18.6013 30.8919 17.9326 31.4798C17.176 32.1453 16.8671 32.8214 16.8651 33.8171C16.8623 35.2231 17.0182 35.4236 21.8519 40.23C25.0772 43.4371 26.3775 44.647 26.8062 44.8402C27.5679 45.1836 28.6251 45.1842 29.3893 44.8418C30.261 44.4512 48.401 26.3466 48.8395 25.4296C49.609 23.8203 48.9156 21.9138 47.285 21.1552C46.5219 20.8002 45.6304 20.7696 44.7591 21.0687Z" fill="#64FF60"/>
</svg>
