<svg width="18" height="24" viewBox="0 0 18 24" fill="none" xmlns="http://www.w3.org/2000/svg">
<path d="M13.4641 0.98964L11.7332 5.01067L13.6002 5.8143L15.3311 1.79327L13.4641 0.989594L13.4641 0.98964ZM4.63464 1.00567L2.75425 1.77723L4.41611 5.82723L6.2965 5.05567L4.63469 1.00567H4.63464ZM6.08298 1.30333L5.70175 1.4628L7.05034 4.75028L7.35972 5.50469L6.60597 5.812L4.72572 6.58356L3.97136 6.89294L3.66198 6.13872L2.32305 2.87669L1.80273 3.09437C2.61487 4.17995 2.97962 5.53571 2.82183 6.88224C2.66404 8.22877 1.99573 9.46346 0.954625 10.3319L0.954625 12.0414H5.33791L5.33791 15.6999H0.954578L0.954578 16.3686H5.33786L5.33786 20.0322H0.954578L0.954578 21.8293C1.74208 22.6168 5.39341 23.0103 9.04483 23.0103C12.6962 23.0103 16.3476 22.6168 17.1351 21.8293L17.1351 20.0322H12.7517L12.7517 16.3692H17.1351L17.1351 15.6998H12.7503L12.7503 12.0367H17.1335L17.1335 10.3276C16.0924 9.4592 15.4241 8.2245 15.2663 6.87797C15.1085 5.53144 15.4732 4.17569 16.2854 3.09011L15.7538 2.86745L14.3476 6.13398L14.0249 6.88333L13.2757 6.56069L11.4113 5.761L10.662 5.43836L10.9847 4.68906L12.376 1.45609L12.0061 1.30328C11.7127 1.83144 11.2834 2.27152 10.7627 2.57792C10.2419 2.88432 9.64873 3.04589 9.04455 3.04589C8.44036 3.04589 7.84717 2.88432 7.32644 2.57792C6.80571 2.27152 6.3764 1.83148 6.08298 1.30333ZM0.138016 12.8523L0.138016 14.8849H4.52284L4.52284 12.8523H0.138016ZM13.5657 12.8523L13.5657 14.8849H17.9505L17.9505 12.8523H13.5657ZM0.138016 17.1846L0.138016 19.2173H4.52284L4.52284 17.1845H0.138016L0.138016 17.1846ZM13.5657 17.1846L13.5657 19.2173H17.9505L17.9505 17.1845H13.5657L13.5657 17.1846Z" fill="url(#paint0_linear_0_21)"/>
<defs>
<linearGradient id="paint0_linear_0_21" x1="9.04427" y1="0.989594" x2="9.04427" y2="23.0103" gradientUnits="userSpaceOnUse">
<stop stop-color="#4F95FF"/>
<stop offset="1" stop-color="#7B86FF" stop-opacity="0.6"/>
</linearGradient>
</defs>
</svg>
